<svg width="21" height="21" viewBox="0 0 21 21" fill="none" xmlns="http://www.w3.org/2000/svg">
<path d="M9.197 19H6.3485H3.5C2.96957 19 2.46086 18.7893 2.08579 18.4142C1.71071 18.0391 1.5 17.5304 1.5 17V5C1.5 4.46957 1.71071 3.96086 2.08579 3.58579C2.46086 3.21071 2.96957 3 3.5 3H4.5M15.5 9V5C15.5 4.46957 15.2893 3.96086 14.9142 3.58579C14.5391 3.21071 14.0304 3 13.5 3H11.5M15.5 12V16H19.5L15.5 12Z" stroke="#CCCCCC" stroke-width="2" stroke-linecap="round" stroke-linejoin="round"/>
<path d="M9.5 1H7.5C6.39543 1 5.5 1.89543 5.5 3C5.5 4.10457 6.39543 5 7.5 5H9.5C10.6046 5 11.5 4.10457 11.5 3C11.5 1.89543 10.6046 1 9.5 1Z" stroke="#CCCCCC" stroke-width="2" stroke-linecap="round" stroke-linejoin="round"/>
<path d="M15.5 20C17.7091 20 19.5 18.2091 19.5 16C19.5 13.7909 17.7091 12 15.5 12C13.2909 12 11.5 13.7909 11.5 16C11.5 18.2091 13.2909 20 15.5 20Z" stroke="#CCCCCC" stroke-width="2" stroke-linecap="round" stroke-linejoin="round"/>
<path d="M5.5 13H8.5M5.5 9H9.5H5.5Z" stroke="#CCCCCC" stroke-width="2" stroke-linecap="round" stroke-linejoin="round"/>
</svg>
