<svg width="16" height="18" viewBox="0 0 16 18" fill="none" xmlns="http://www.w3.org/2000/svg">
<path d="M3 17.3334H13.8333C14.2754 17.3334 14.6993 17.1578 15.0118 16.8453C15.3244 16.5327 15.5 16.1088 15.5 15.6667V2.33341C15.5 1.89139 15.3244 1.46746 15.0118 1.1549C14.6993 0.842343 14.2754 0.666748 13.8333 0.666748H2.16667C1.72464 0.666748 1.30072 0.842343 0.988155 1.1549C0.675595 1.46746 0.5 1.89139 0.5 2.33341V15.6667C0.5 16.1088 0.675595 16.5327 0.988155 16.8453C1.30072 17.1578 1.72464 17.3334 2.16667 17.3334H3ZM8 3.16591C9.3725 3.16591 10.5 4.29175 10.5 5.66591C10.5 7.03925 9.3725 8.16675 8 8.16675C6.6275 8.16675 5.5 7.03925 5.5 5.66591C5.5 4.29175 6.6275 3.16591 8 3.16591V3.16591ZM3 13.3751C3 11.5259 5.25417 9.62508 8 9.62508C10.7458 9.62508 13 11.5259 13 13.3751V14.0001H3V13.3751Z" fill="#1A5D98"/>
</svg>
